<svg xmlns="http://www.w3.org/2000/svg" viewBox="0 0 512 512">
  <defs>
    <linearGradient id="grad1" x1="0%" y1="0%" x2="100%" y2="100%">
      <stop offset="0%" style="stop-color:#3b82f6;stop-opacity:1" />
      <stop offset="100%" style="stop-color:#8b5cf6;stop-opacity:1" />
    </linearGradient>
    <filter id="glow">
      <feGaussianBlur stdDeviation="2.5" result="coloredBlur"/>
      <feMerge>
        <feMergeNode in="coloredBlur"/>
        <feMergeNode in="SourceGraphic"/>
      </feMerge>
    </filter>
  </defs>
  <circle cx="256" cy="256" r="240" fill="url(#grad1)" opacity="0.1" />
  <path d="M256 64C150 64 64 150 64 256s86 192 192 192 192-86 192-192S362 64 256 64zm0 344c-84 0-152-68-152-152s68-152 152-152 152 68 152 152-68 152-152 152z" fill="url(#grad1)" filter="url(#glow)" />
  <path d="M256 160c-53 0-96 43-96 96s43 96 96 96 96-43 96-96-43-96-96-96zm0 152c-31 0-56-25-56-56s25-56 56-56 56 25 56 56-25 56-56 56z" fill="#fff" opacity="0.8" />
  <circle cx="256" cy="256" r="24" fill="#fff" />
</svg>
